<svg clip-rule="evenodd" fill-rule="evenodd" stroke-linejoin="round" stroke-miterlimit="2" viewBox="0 0 517 142" xmlns="http://www.w3.org/2000/svg"><path d="m210.323 86.871c0-28.565 22.74-52.761 57.125-52.761 34.203 0 57.126 24.196 57.126 52.761 0 28.744-22.923 52.761-57.126 52.761-34.385 0-57.125-24.017-57.125-52.761zm-130.273 52.761c-50.394 0-80.05-30.203-80.05-66.404 0-36.209 29.656-66.407 74.228-66.407 30.382 0 53.85 14.374 65.678 32.566l-18.376 13.463c-8.005-16.923-24.562-26.02-47.302-26.02-32.748 0-52.397 19.832-52.397 46.398 0 26.558 19.649 46.388 58.219 46.388 14.737 0 30.93-3.818 38.387-9.643v-29.473h-71.5l7.643-20.01h85.69v60.766c-9.278 5.272-28.201 18.376-60.22 18.376zm341.682-78.049-29.836 75.319h-22.923l-39.841-100.061h22.739l28.562 77.866 28.747-77.866h25.47l28.562 77.682 28.745-77.682h22.561l-39.843 100.061h-22.923zm-234.152-61.127h-20.011v136.445h20.011v-136.445zm116.072 86.415c0-20.74-15.828-35.292-36.204-35.292-21.103 0-36.204 14.552-36.204 35.292 0 20.925 15.101 35.292 36.204 35.292 20.376 0 36.204-14.367 36.204-35.292z" fill-rule="nonzero"/></svg>